<?xml version="1.0" standalone="no"?>
<!DOCTYPE svg PUBLIC "-//W3C//DTD SVG 20010904//EN"
 "http://www.w3.org/TR/2001/REC-SVG-20010904/DTD/svg10.dtd">
<svg version="1.0" xmlns="http://www.w3.org/2000/svg"
 width="700.000000pt" height="700.000000pt" viewBox="0 0 700.000000 700.000000"
 preserveAspectRatio="xMidYMid meet">
<metadata>
Created by potrace 1.11, written by Peter Selinger 2001-2013
</metadata>
<g transform="translate(0.000000,700.000000) scale(0.100000,-0.100000)"
fill="#000000" stroke="none">
<path d="M0 3500 l0 -3500 3500 0 3500 0 0 3500 0 3500 -3500 0 -3500 0 0
-3500z m5948 2713 l372 -165 0 -73 c0 -69 -1 -72 -27 -85 -38 -17 -737 -328
-790 -351 l-43 -18 0 88 0 87 98 40 97 41 0 198 0 199 -97 39 -98 39 0 89 0
89 58 -26 c31 -14 225 -100 430 -191z m372 -1025 c0 -117 -5 -233 -11 -258
-24 -107 -96 -163 -210 -164 -55 -1 -72 3 -106 26 -23 15 -44 36 -48 48 -8 27
-21 25 -29 -3 -7 -31 -62 -85 -104 -103 -42 -17 -130 -18 -183 -2 -56 16 -112
69 -140 130 -23 50 -24 65 -27 296 l-3 242 430 0 431 0 0 -212z m-4760 -738
l0 -330 -430 0 -430 0 0 75 0 75 355 0 355 0 0 255 0 255 75 0 75 0 0 -330z
m2158 194 c88 -16 228 -62 303 -99 172 -87 367 -266 467 -427 291 -469 216
-1074 -180 -1454 -46 -44 -111 -99 -145 -122 -136 -92 -317 -166 -473 -192
-96 -17 -284 -17 -380 0 -397 67 -742 344 -890 715 -139 345 -105 736 91 1050
59 96 192 243 279 310 262 201 591 279 928 219z m1927 -31 c-45 -113 -55 -149
-55 -209 0 -80 19 -128 62 -154 31 -19 50 -20 351 -20 l317 0 0 -81 0 -80
-327 3 c-318 3 -330 4 -379 26 -63 29 -116 82 -146 147 -19 41 -23 67 -23 140
1 87 9 130 42 208 l16 37 75 0 c67 0 73 -2 67 -17z m-4400 -658 c223 -59 363
-274 328 -506 -32 -202 -183 -353 -379 -378 -210 -26 -384 66 -472 249 -32 65
-37 86 -40 168 -5 116 15 198 68 280 104 161 303 237 495 187z m4835 -41 c175
-83 269 -246 257 -444 -8 -141 -66 -251 -172 -332 -74 -56 -144 -80 -251 -86
-108 -5 -180 12 -266 64 -273 165 -277 591 -8 764 84 54 150 70 270 67 93 -2
112 -6 170 -33z m-4773 -974 c163 -21 250 -110 269 -275 7 -57 -15 -172 -45
-240 l-20 -45 -65 0 c-36 0 -68 5 -71 11 -4 6 5 38 21 72 38 86 44 186 16 251
-34 75 -40 76 -402 76 l-310 0 0 80 0 80 268 0 c147 0 300 -5 339 -10z m5013
-115 l0 -75 -357 -2 -358 -3 -3 -257 -2 -258 -70 0 -70 0 0 335 0 335 430 0
430 0 0 -75z m-4886 -559 c103 -60 126 -138 126 -433 l0 -213 -430 0 -430 0 0
218 c0 233 7 282 50 342 33 46 91 71 164 72 71 0 111 -16 149 -62 29 -33 37
-37 37 -15 0 24 62 87 105 107 59 28 167 20 229 -16z m126 -855 l0 -89 -97
-39 -98 -39 -3 -200 -2 -199 100 -39 100 -39 0 -88 c0 -49 -1 -89 -3 -89 -2 0
-194 85 -428 189 l-424 190 -3 74 -3 74 428 191 c235 105 429 191 431 191 1 1
2 -39 2 -88z m3580 -617 c0 -26 -40 -74 -61 -74 -22 0 -22 2 -8 53 9 32 14 37
39 37 21 0 30 -5 30 -16z m590 -19 c0 -33 -2 -35 -35 -35 -33 0 -35 2 -35 35
0 33 2 35 35 35 33 0 35 -2 35 -35z m-1130 -95 c0 -7 6 -7 19 0 29 15 67 12
85 -6 15 -14 17 -14 32 0 21 22 67 20 95 -3 23 -18 24 -26 27 -155 l4 -136
-36 0 -35 0 -3 123 -3 122 -25 0 -25 0 -3 -122 -3 -123 -29 0 -29 0 -3 123 -3
122 -25 0 -25 0 -3 -122 -3 -123 -29 0 -30 0 0 155 0 155 25 0 c14 0 25 -5 25
-10z m380 -95 c0 -99 2 -107 25 -130 31 -32 101 -35 136 -6 22 18 24 28 27
130 l4 111 29 0 29 0 0 -155 0 -155 -30 0 c-24 0 -30 4 -31 23 0 12 -3 16 -6
9 -15 -38 -115 -54 -178 -28 -53 23 -65 57 -65 191 l0 115 30 0 30 0 0 -105z
m563 96 c35 -14 57 -39 57 -67 0 -20 -5 -24 -30 -24 -19 0 -30 5 -30 14 0 20
-23 26 -95 26 -76 0 -95 -6 -95 -30 0 -22 17 -29 105 -40 91 -11 120 -23 141
-55 21 -33 10 -80 -27 -107 -30 -22 -117 -34 -184 -23 -52 7 -95 41 -95 75 0
27 43 27 70 0 16 -16 33 -20 88 -20 80 0 118 18 92 44 -9 9 -49 20 -95 26 -44
6 -96 19 -115 28 -30 14 -35 23 -38 55 -4 49 18 84 61 96 42 12 159 13 190 2z
m185 -148 l3 -153 -31 0 -30 0 0 156 0 155 28 -3 27 -3 3 -152z m317 143 c36
-15 55 -42 55 -75 0 -31 -52 -29 -65 2 -9 19 -18 22 -81 25 -94 4 -104 -6
-104 -96 0 -37 4 -74 9 -81 6 -10 32 -16 74 -19 67 -4 107 8 107 33 0 10 10
15 30 15 25 0 30 -4 30 -25 0 -60 -82 -95 -192 -82 -95 12 -118 43 -118 160 0
86 13 116 60 139 43 22 147 24 195 4z m359 0 c58 -24 66 -46 66 -178 l0 -118
-25 0 c-16 0 -25 6 -25 15 0 19 -9 19 -32 -1 -37 -35 -172 -30 -209 7 -21 21
-26 87 -9 119 23 43 167 56 214 19 l26 -20 0 45 c0 58 -17 68 -108 64 -58 -3
-68 -6 -77 -25 -11 -27 -65 -33 -65 -8 0 30 26 68 55 81 40 18 147 18 189 0z"/>
<path d="M5480 6333 l0 -69 98 -40 97 -39 0 -210 0 -210 -97 -39 -98 -40 0
-69 c0 -51 3 -68 13 -64 6 3 191 85 410 182 l397 177 0 63 0 63 -401 178
c-221 99 -406 181 -410 182 -5 2 -9 -27 -9 -65z m583 -310 c60 -25 105 -49
100 -53 -4 -3 -33 -17 -63 -29 -30 -13 -112 -47 -182 -77 l-128 -53 0 164 0
164 83 -35 c45 -20 131 -56 190 -81z"/>
<path d="M5800 5975 c0 -133 1 -136 21 -130 66 21 290 122 288 130 -2 8 -235
113 -291 131 -17 5 -18 -6 -18 -131z"/>
<path d="M5480 5160 c0 -195 2 -225 20 -273 36 -97 110 -147 215 -147 106 0
165 40 195 133 6 20 15 37 18 37 4 -1 16 -19 27 -42 25 -53 58 -76 115 -84
100 -13 188 39 215 129 11 38 15 102 15 259 l0 208 -410 0 -410 0 0 -220z
m380 -40 c0 -160 -8 -198 -49 -234 -33 -29 -117 -33 -159 -6 -53 33 -62 69
-62 240 l0 150 135 0 135 0 0 -150z m328 -11 l-3 -161 -28 -24 c-21 -18 -40
-24 -73 -24 -97 0 -114 33 -114 230 l0 140 111 0 110 0 -3 -161z"/>
<path d="M5607 5244 c-10 -10 -8 -210 2 -264 12 -60 56 -100 111 -100 101 0
123 42 124 230 l1 135 -116 3 c-63 1 -118 -1 -122 -4z"/>
<path d="M5987 5244 c-10 -11 -8 -159 3 -228 14 -88 51 -115 126 -94 51 14 58
36 59 188 l0 135 -90 3 c-50 1 -94 0 -98 -4z"/>
<path d="M1437 4763 c-4 -3 -7 -120 -7 -260 l0 -253 -360 0 -360 0 0 -55 0
-55 415 0 415 0 0 315 0 315 -48 0 c-27 0 -52 -3 -55 -7z"/>
<path d="M5513 4608 c-28 -35 -48 -127 -48 -219 0 -86 3 -101 30 -155 36 -70
97 -116 175 -133 30 -7 170 -11 340 -11 l290 0 0 60 0 60 -302 0 c-278 0 -306
2 -346 20 -83 38 -107 164 -57 305 14 39 25 73 25 78 0 12 -97 8 -107 -5z"/>
<path d="M986 3930 c-110 -39 -200 -119 -252 -225 -27 -57 -29 -67 -29 -186 0
-125 0 -125 38 -201 126 -256 472 -316 681 -118 223 211 164 582 -113 713 -56
26 -78 31 -165 34 -83 3 -111 0 -160 -17z m299 -139 c45 -23 76 -46 100 -78
96 -125 81 -320 -32 -424 -172 -158 -473 -85 -535 131 -19 68 -15 167 11 225
73 166 280 232 456 146z"/>
<path d="M1022 3796 c-100 -33 -172 -113 -193 -214 -46 -225 151 -407 380
-348 130 33 209 126 219 255 9 130 -45 234 -152 288 -62 32 -185 41 -254 19z"/>
<path d="M5753 3916 c-136 -44 -248 -166 -284 -309 -20 -81 -7 -214 29 -290
75 -160 214 -247 396 -247 245 0 426 182 426 429 0 182 -89 324 -250 400 -47
22 -71 26 -165 28 -73 2 -124 -2 -152 -11z m257 -123 c75 -24 153 -98 179
-169 26 -67 28 -171 5 -237 -22 -64 -91 -139 -156 -168 -73 -33 -221 -34 -289
-3 -108 50 -169 140 -177 260 -10 156 73 280 218 325 46 14 166 10 220 -8z"/>
<path d="M5828 3790 c-103 -18 -186 -86 -224 -186 -23 -60 -16 -183 14 -241
81 -157 308 -204 464 -97 100 69 142 231 92 352 -50 123 -199 196 -346 172z"/>
<path d="M717 2924 c-4 -4 -7 -31 -7 -61 l0 -53 298 0 c165 0 313 -5 333 -10
104 -29 136 -156 80 -317 l-29 -83 54 0 c49 0 55 2 69 30 46 88 56 249 20 333
-23 56 -79 112 -138 138 -50 23 -61 24 -362 27 -171 2 -314 0 -318 -4z"/>
<path d="M5480 2564 l0 -315 53 3 52 3 3 253 2 252 355 0 355 0 0 60 0 60
-410 0 -410 0 0 -316z"/>
<path d="M1198 2260 c-42 -23 -76 -66 -89 -115 -6 -19 -13 -35 -18 -35 -4 0
-15 18 -25 39 -25 58 -75 86 -151 85 -94 -1 -153 -42 -182 -128 -13 -41 -17
-91 -17 -261 l-1 -210 413 -3 412 -2 0 212 c0 117 -5 233 -11 258 -13 60 -50
114 -100 147 -55 36 -175 44 -231 13z m158 -115 c59 -25 74 -72 74 -248 l0
-148 -137 3 -138 3 1 152 c1 130 4 156 20 185 35 60 110 83 180 53z m-357 -41
c41 -29 51 -72 51 -219 l0 -135 -115 0 -115 0 0 118 c1 150 11 200 45 229 32
28 99 31 134 7z"/>
<path d="M1220 2113 c-40 -36 -49 -79 -50 -225 l0 -118 120 0 120 0 0 143 c0
124 -3 146 -20 175 -36 59 -119 71 -170 25z"/>
<path d="M878 2089 c-27 -15 -38 -74 -38 -201 l0 -118 95 0 95 0 0 124 c0 130
-10 180 -40 196 -24 13 -90 12 -112 -1z"/>
<path d="M1120 1287 l-405 -182 -3 -56 c-2 -37 1 -59 10 -66 10 -8 753 -340
806 -360 9 -4 12 13 12 63 l0 69 -100 40 -100 40 2 210 3 210 98 39 97 40 0
68 c0 37 -3 68 -7 67 -5 0 -190 -83 -413 -182z m108 -327 l-3 -78 -183 77
c-101 43 -183 81 -183 86 0 4 82 43 183 85 l183 77 3 -84 c1 -46 1 -119 0
-163z"/>
<path d="M1050 1114 c-85 -36 -156 -66 -157 -68 -2 -2 68 -33 154 -69 86 -37
158 -65 160 -63 2 2 2 62 1 134 l-3 131 -155 -65z"/>
<path d="M6227 493 c-13 -12 -7 -51 9 -57 25 -9 120 -7 148 4 31 11 34 35 7
50 -22 11 -154 14 -164 3z"/>
</g>
</svg>
